<?xml version="1.0" encoding="UTF-8" standalone="no"?>
<!-- Created with Inkscape (http://www.inkscape.org/) -->

<svg
   width="50.667068mm"
   height="49.825706mm"
   viewBox="0 0 50.667068 49.825706"
   version="1.1"
   id="svg1"
   xml:space="preserve"
   xmlns="http://www.w3.org/2000/svg"
   xmlns:svg="http://www.w3.org/2000/svg"><defs
     id="defs1" /><g
     id="layer1"
     transform="translate(-101.02614,-232.59216)"><path
       style="fill:#000000"
       d="m 123.94783,282.26772 c -0.24253,-0.0366 -0.77831,-0.11002 -1.19062,-0.16318 l -0.74965,-0.0966 v -5.38263 -5.38262 l -0.5156,-0.5156 c -0.54735,-0.54734 -1.17018,-0.65623 -1.83315,-0.32047 -0.2119,0.10732 -2.02858,1.82929 -4.03706,3.8266 -4.15014,4.12706 -3.68805,3.92122 -5.37438,2.39417 l -0.85162,-0.77118 3.96875,-3.89212 c 4.52959,-4.44214 4.98022,-4.74907 6.96736,-4.74561 2.00392,0.003 3.52517,0.93147 4.39786,2.68273 l 0.45284,0.90872 v 5.7862 5.7862 l -0.39688,-0.024 c -0.21828,-0.0132 -0.59531,-0.054 -0.83785,-0.0906 z m 3.73948,-5.82079 0.0529,-5.97089 0.48161,-0.81926 c 0.95624,-1.62663 2.50699,-2.51408 4.36908,-2.5003 1.94111,0.0144 2.41914,0.34366 6.83507,4.70842 2.15856,2.13355 3.92466,3.94042 3.92466,4.01528 0,0.17973 -2.16725,1.93018 -2.31836,1.8725 -0.0644,-0.0246 -1.86708,-1.73141 -4.00591,-3.79296 -3.60649,-3.47616 -3.93524,-3.74826 -4.52847,-3.74826 -0.47183,0 -0.77497,0.13529 -1.15528,0.51559 l -0.51559,0.5156 v 5.37793 5.37792 l -0.66146,0.0964 c -0.3638,0.053 -1.08214,0.14733 -1.5963,0.20965 l -0.93484,0.11331 z m -20.99891,-3.30859 c -0.49974,-0.61594 -0.90862,-1.20192 -0.90862,-1.30217 0,-0.10025 1.66188,-1.7982 3.69306,-3.77322 2.03118,-1.97501 3.77756,-3.81319 3.88084,-4.08484 0.24297,-0.63904 0.0902,-1.21524 -0.45904,-1.73152 -0.43971,-0.41332 -0.44378,-0.41364 -5.98229,-0.46483 -5.08677,-0.047 -5.54304,-0.076 -5.55135,-0.35277 -0.005,-0.16586 -0.0686,-0.83734 -0.14145,-1.49219 l -0.13238,-1.19062 5.91818,0.004 c 6.55899,0.004 6.62181,0.0138 7.99042,1.2155 1.4635,1.28498 1.9844,3.70118 1.18013,5.4741 -0.3753,0.8273 -2.87461,3.46666 -6.53299,6.89906 l -2.04589,1.91952 z m 34.26117,-3.06609 c -3.57942,-3.51724 -4.11199,-4.11198 -4.36563,-4.8752 -0.65133,-1.95992 -0.16875,-3.96194 1.26701,-5.25624 1.40931,-1.27045 1.38909,-1.26705 7.92501,-1.33323 l 5.86493,-0.0594 v 0.77993 c 0,0.42896 -0.0505,1.14819 -0.11217,1.59829 l -0.11217,0.81837 h -5.44129 -5.4413 l -0.56723,0.50682 c -0.44351,0.39627 -0.56723,0.64794 -0.56723,1.15385 0,0.6077 0.23442,0.88163 3.85676,4.50678 l 3.85676,3.85975 -0.30729,0.46899 c -0.39956,0.6098 -1.52381,1.85302 -1.66765,1.84412 -0.0615,-0.004 -1.9463,-1.80959 -4.18851,-4.01285 z m -18.78107,-3.79074 c -0.73933,-0.49824 -1.03711,-1.06511 -1.03963,-1.97908 -0.002,-0.90446 0.49407,-1.71308 1.2814,-2.08669 0.75404,-0.35782 1.19588,-0.36982 1.94011,-0.0527 1.82112,0.77597 2.06636,3.17527 0.42674,4.17501 -0.77251,0.47103 -1.86077,0.44744 -2.60862,-0.0565 z m 5.5803,-0.14311 c -0.88844,-0.78006 -1.10095,-1.68522 -0.64019,-2.72684 0.83766,-1.89366 3.56076,-1.87311 4.35713,0.0329 0.31832,0.76186 0.30682,1.19981 -0.0513,1.9546 -0.39309,0.82837 -1.17689,1.28317 -2.21284,1.28399 -0.67859,5.4e-4 -0.94605,-0.0997 -1.45275,-0.54462 z m 4.90411,-3.52797 c -0.30543,-0.0885 -0.8103,-0.45127 -1.12192,-0.80618 -0.52041,-0.59272 -0.56013,-0.72304 -0.48747,-1.59923 0.0646,-0.77939 0.18177,-1.0566 0.64024,-1.51506 0.5148,-0.51481 0.65526,-0.56114 1.70088,-0.56114 1.04563,0 1.18608,0.0463 1.70089,0.56114 0.45847,0.45846 0.57561,0.73567 0.64024,1.51506 0.0726,0.87518 0.0326,1.00687 -0.48406,1.59534 -0.46196,0.52615 -1.5133,1.05897 -1.94526,0.98587 -0.0485,-0.008 -0.3381,-0.0873 -0.64354,-0.1758 z m -14.27571,-0.15459 c -0.72713,-0.29415 -1.30853,-1.20779 -1.30853,-2.05626 0,-1.40103 0.71399,-2.25058 2.06015,-2.45129 1.25277,-0.18678 2.70235,1.02151 2.70235,2.25252 0,0.76668 -0.5135,1.7159 -1.13241,2.09331 -0.56461,0.3443 -1.67844,0.42189 -2.32156,0.16172 z m -0.0262,-5.73506 c -1.18182,-0.51377 -1.64638,-2.22596 -0.925,-3.40917 0.87376,-1.43314 3.15033,-1.40491 4.04965,0.0502 1.24675,2.01729 -0.9007,4.32577 -3.12465,3.35896 z m 13.76342,-0.0736 c -2.40788,-1.51285 -0.49432,-5.18285 2.17153,-4.16475 0.96939,0.37021 1.47997,1.15486 1.47997,2.27436 0,0.68309 -0.098,0.92655 -0.5883,1.46156 -0.51126,0.55789 -0.71336,0.65123 -1.5434,0.71279 -0.73876,0.0548 -1.08301,-0.01 -1.5198,-0.28396 z m -31.01103,-0.85547 c 0.0425,-0.26678 0.12559,-0.94147 0.18467,-1.4993 l 0.10742,-1.01424 h 5.19644 c 5.52055,0 6.16935,-0.0843 6.58203,-0.85541 0.10482,-0.19587 0.19059,-0.6441 0.19059,-0.99609 0,-0.60043 -0.23983,-0.87631 -3.88189,-4.46541 l -3.88188,-3.82545 0.98588,-1.19701 0.98589,-1.197 2.05815,1.92841 c 1.13198,1.06063 3.01692,2.90897 4.18875,4.10743 1.70722,1.74601 2.18916,2.35174 2.42534,3.04827 0.63063,1.85981 0.22297,3.71724 -1.10795,5.04816 -1.35572,1.35571 -1.63467,1.40271 -8.32569,1.40271 h -5.785 z m 38.60742,0.29298 c -0.96256,-0.27897 -2.23593,-1.26987 -2.79115,-2.17198 -0.43748,-0.7108 -0.54393,-1.09632 -0.59791,-2.16533 -0.11323,-2.2422 0.014,-2.42877 4.97631,-7.29651 l 3.85644,-3.78295 0.52463,0.61658 c 0.28854,0.33913 0.72976,0.88009 0.98047,1.20214 l 0.45583,0.58556 -3.81274,3.82417 c -2.34889,2.35593 -3.85593,4.00311 -3.92522,4.29024 -0.13204,0.54713 0.28501,1.46415 0.78841,1.73356 0.21147,0.11318 2.36707,0.18161 5.7204,0.18161 3.20336,0 5.4229,0.0677 5.48447,0.16735 0.0569,0.0921 0.15271,0.80642 0.21295,1.5875 l 0.10951,1.42015 -5.71468,-0.0159 c -3.14308,-0.009 -5.96355,-0.088 -6.26772,-0.17619 z m -17.47417,-3.49445 c -1.40786,-0.88455 -1.471,-2.82037 -0.12648,-3.87797 0.71565,-0.56293 1.50085,-0.63687 2.42449,-0.2283 0.95125,0.42078 1.3535,1.08364 1.3535,2.23039 0,0.66663 -0.10118,0.91551 -0.5883,1.44705 -0.51127,0.55789 -0.71336,0.65122 -1.5434,0.71278 -0.73876,0.0548 -1.08302,-0.01 -1.51981,-0.28395 z m 6.03276,0.16687 c -0.19403,-0.0803 -0.55122,-0.35943 -0.79375,-0.62039 -0.36612,-0.39392 -0.44098,-0.64975 -0.44098,-1.50701 0,-0.90323 0.0652,-1.10061 0.52077,-1.5761 1.05304,-1.09914 2.60807,-1.05114 3.62935,0.11205 0.51905,0.59116 0.55687,0.71747 0.48266,1.61227 -0.0698,0.84216 -0.16561,1.04885 -0.72245,1.55916 -0.54599,0.50037 -0.76758,0.58663 -1.48239,0.57712 -0.46224,-0.006 -0.99919,-0.0768 -1.19321,-0.1571 z m -9.77485,-5.23932 c -0.58983,-0.2164 -1.63935,-1.1107 -4.32153,-3.68237 -1.94838,-1.8681 -3.84548,-3.71134 -4.21577,-4.09607 l -0.67325,-0.69952 1.13924,-0.90653 c 0.62658,-0.49858 1.23437,-0.90652 1.35064,-0.90652 0.11628,0 1.89415,1.66119 3.95084,3.69152 2.32049,2.29077 3.92209,3.73737 4.22082,3.81234 0.27251,0.0684 0.71314,0.0248 1.01546,-0.10039 1.00177,-0.41494 1.04659,-0.68968 1.04659,-6.41416 0,-2.861 0.0603,-5.23907 0.13394,-5.2846 0.0737,-0.0455 0.78805,-0.13984 1.5875,-0.20958 l 1.45356,-0.12679 -9.8e-4,5.53493 c -5.7e-4,3.22283 -0.0762,5.80588 -0.18114,6.18356 -0.30775,1.10804 -1.23359,2.27362 -2.26213,2.84791 -1.17533,0.65626 -3.00702,0.81003 -4.24379,0.35627 z m 12.57321,0.11077 c -0.95641,-0.29542 -2.23952,-1.28622 -2.75897,-2.13046 -0.70425,-1.14458 -0.8255,-2.31192 -0.8296,-7.98689 l -0.004,-4.91905 1.53583,0.12461 c 0.84471,0.0685 1.59877,0.16352 1.67569,0.21106 0.0769,0.0475 0.13987,2.48503 0.13987,5.41664 0,5.89411 0.003,5.91339 1.11941,6.2817 0.32992,0.10888 0.75476,0.13317 0.96554,0.0552 0.20701,-0.0766 2.11101,-1.81809 4.2311,-3.87002 l 3.85471,-3.73078 1.13233,0.87505 c 0.62278,0.48128 1.15275,0.93265 1.17772,1.00305 0.0968,0.2728 -7.81417,7.93446 -8.60026,8.32927 -0.89085,0.44742 -2.73527,0.62002 -3.63983,0.34062 z"
       id="path1" /></g></svg>
